<?xml version="1.0" standalone="no"?>
<!DOCTYPE svg PUBLIC "-//W3C//DTD SVG 1.1//EN" "http://www.w3.org/Graphics/SVG/1.1/DTD/svg11.dtd" >
<svg xmlns="http://www.w3.org/2000/svg">
<metadata>Generated by IcoMoon</metadata>
<defs>
<font id="icomoon" horiz-adv-x="1024">
<font-face units-per-em="1024" ascent="960" descent="-64" />
<missing-glyph horiz-adv-x="1024" />
<glyph unicode="&#x20;" horiz-adv-x="512" d="" />
<glyph unicode="&#xe900;" glyph-name="A" d="M832 64h-101.44l-72.576 210.24h-296.128l-68.416-210.24h-101.44l270.848 768h98.24l270.912-768zM629.504 361.024l-107.392 319.296c-3.392 10.176-7.040 28.096-11.008 53.504h-2.304c-3.392-23.168-7.232-40.96-11.456-53.504l-106.56-319.296h238.72z" />
<glyph unicode="&#xe901;" glyph-name="Aminus" d="M946.41 622c-70.24 163.694-230.034 276.265-416.12 276.265-249.368 0-451.52-202.152-451.52-451.52s202.152-451.52 451.52-451.52c249.366 0 451.517 202.15 451.52 451.515v0c0 0.173 0 0.378 0 0.582 0 63.084-13.020 123.127-36.518 177.588l1.118-2.911zM789.13 189.2c-65.91-65.909-156.965-106.675-257.54-106.675-201.153 0-364.22 163.067-364.22 364.22s163.067 364.22 364.22 364.22c201.153 0 364.22-163.067 364.22-364.22 0-0.002 0-0.003 0-0.005v0c0.001-0.294 0.001-0.642 0.001-0.99 0-100.265-40.783-191.004-106.666-256.535l-0.016-0.016zM731 490h-399c-23.748 0-43-19.252-43-43s19.252-43 43-43v0h399c23.748 0 43 19.252 43 43s-19.252 43-43 43v0z" />
<glyph unicode="&#xe902;" glyph-name="Aplus" d="M938.667 448c0-235.648-191.019-426.667-426.667-426.667s-426.667 191.019-426.667 426.667 191.019 426.667 426.667 426.667 426.667-191.019 426.667-426.667zM874.667 448c0 200.299-162.368 362.667-362.667 362.667s-362.667-162.368-362.667-362.667 162.368-362.667 362.667-362.667 362.667 162.368 362.667 362.667zM757.333 448c0-17.673-14.327-32-32-32v0h-181.333v-181.333c-0.013-17.663-14.335-31.977-32-31.977-16.583 0-30.22 12.614-31.839 28.771l-0.011 0.134-0.15 3.072v181.333h-181.333c-17.673 0-32 14.327-32 32s14.327 32 32 32v0h181.333v181.333c0.013 17.663 14.335 31.977 32 31.977 16.583 0 30.22-12.614 31.839-28.771l0.011-0.134 0.15-3.072v-181.333h181.333c17.673 0 32-14.327 32-32v0z" />
<glyph unicode="&#xe903;" glyph-name="add" d="M970.752 394.291h-916.48c-29.408 0-53.248 23.84-53.248 53.248s23.84 53.248 53.248 53.248h916.48c29.408 0 53.248-23.84 53.248-53.248s-23.84-53.248-53.248-53.248v0zM565.504 905.779v-916.48c0-29.408-23.84-53.248-53.248-53.248s-53.248 23.84-53.248 53.248v0 916.48c0 29.408 23.84 53.248 53.248 53.248s53.248-23.84 53.248-53.248v0z" />
<glyph unicode="&#xe904;" glyph-name="back" d="M853.333 494.933h-571.733l213.333 217.6c17.067 17.067 17.067 46.933 0 64s-42.667 17.067-64 0l-294.4-294.4c-4.267-8.533-8.533-21.333-8.533-34.133s4.267-25.6 12.8-34.133l294.4-294.4c8.533-8.533 21.333-12.8 29.867-12.8 12.8 0 21.333 4.267 29.867 12.8 17.067 17.067 17.067 46.933 0 64l-213.333 217.6h571.733c21.333 0 42.667 17.067 42.667 42.667 0 29.867-21.333 51.2-42.667 51.2z" />
<glyph unicode="&#xe905;" glyph-name="book" d="M194.56 899.291h-30.427c-0.177 0.004-0.385 0.007-0.594 0.007-14.3 0-25.893-11.592-25.893-25.893 0-0.234 0.003-0.467 0.009-0.699l-0.001 0.034v-697.783c22.674 15.141 49.298 26.551 79.579 26.551h489.326c0.177-0.004 0.385-0.007 0.594-0.007 14.3 0 25.893 11.592 25.893 25.893 0 0.234-0.003 0.467-0.009 0.699l0.001-0.034v644.681c0.005 0.198 0.009 0.431 0.009 0.665 0 14.3-11.592 25.893-25.893 25.893-0.209 0-0.417-0.002-0.624-0.007l0.031 0.001h-303.47v-333.751h3.803l-106.203 68.315-106.203-64.512v329.947zM767.195 49.81h-553.691c-15.214 0-26.551 7.534-26.551 18.944 0 11.337 11.337 19.017 26.551 19.017h549.888c15.141 0 26.551-7.68 26.551-19.017 0-11.41-7.607-19.017-22.747-19.017zM839.241 819.639c0 15.214 19.017 26.551 34.158 26.551s34.085-11.337 34.085-26.551v-781.239c0-64.439-56.832-102.4-102.4-102.4h-587.849c-72.046 0-144.091 60.709-144.091 132.754v803.986c0 45.568 45.495 87.259 90.99 87.259h542.427c45.495 0 87.259-41.691 87.259-87.259v-652.288c0-45.495-30.354-75.849-75.849-75.849h-500.736c-41.691 0-79.653-30.354-79.653-75.849s34.158-72.046 79.726-72.046h587.776c15.214 0 34.158 18.944 34.158 41.691v781.239zM255.269 891.758v-223.817l45.495 34.158 45.495-30.354v220.014h-90.99z" />
<glyph unicode="&#xe906;" glyph-name="book2" d="M737.4 735.5l-177.9-58.7v219h-204v-895.7h204.1v652.9l213.6-648.7 181.2 61.1-217 670.1zM528.6 787h-139.6v72.1h139.6v-72.1zM614.4 589.2l-19.9 65.1 120.2 36.7 21.4-63.8-121.7-38zM69.7 0.2h206v805.3h-206v-805.3zM93.1 761.8h142.7v-71.9h-142.7v71.9z" />
<glyph unicode="&#xe907;" glyph-name="bookmark" d="M810.666 960h-597.333c-58.881-0.073-106.594-47.785-106.667-106.659v-896.006c0.081-11.767 9.639-21.275 21.418-21.275 3.771 0 7.315 0.975 10.392 2.686l-0.109-0.056 373.632 207.573 373.632-207.573c2.988-1.692 6.561-2.689 10.368-2.689 11.782 0 21.333 9.551 21.333 21.333 0 0 0 0.001 0 0.001v0 895.999c0 58.795-47.829 106.667-106.667 106.667zM825.77 582.23l-141.269-141.269 39.296-196.48c1.507-2.849 2.391-6.228 2.391-9.813 0-11.782-9.551-21.333-21.333-21.333-0.001 0-0.001 0-0.002 0h-0.853c-3.806 0.006-7.379 1.002-10.476 2.744l0.108-0.056-181.632 100.907-181.632-100.907c-2.97-1.663-6.518-2.642-10.294-2.642-11.806 0-21.376 9.57-21.376 21.376 0 1.448 0.144 2.862 0.418 4.229l-0.023-0.137 40.405 202.112-141.269 141.269c-3.873 3.863-6.269 9.204-6.269 15.106 0 10.954 8.256 19.98 18.886 21.194l0.098 0.009 181.077 20.096 101.291 182.357c7.595 13.525 29.739 13.525 37.333 0l101.291-182.357 181.077-20.096c10.706-1.292 18.923-10.323 18.923-21.273 0-5.861-2.354-11.172-6.168-15.039l0.002 0.002z" />
<glyph unicode="&#xe908;" glyph-name="bright" d="M512 256c106.039 0 192 85.961 192 192s-85.961 192-192 192v0c-106.039 0-192-85.961-192-192s85.961-192 192-192v0zM512 192c-141.385 0-256 114.615-256 256s114.615 256 256 256v0c141.385 0 256-114.615 256-256s-114.615-256-256-256v0zM32 480h128c17.673 0 32-14.327 32-32s-14.327-32-32-32v0h-128c-17.673 0-32 14.327-32 32s14.327 32 32 32v0zM864 480h128c17.673 0 32-14.327 32-32s-14.327-32-32-32v0h-128c-17.673 0-32 14.327-32 32s14.327 32 32 32v0zM480-32v128c0 17.673 14.327 32 32 32s32-14.327 32-32v0-128c0-17.673-14.327-32-32-32s-32 14.327-32 32v0zM480 800v128c0 17.673 14.327 32 32 32s32-14.327 32-32v0-128c0-17.673-14.327-32-32-32s-32 14.327-32 32v0zM828.8 85.973l-90.539 90.496c-6.012 5.825-9.743 13.973-9.743 22.992 0 17.673 14.327 32 32 32 9.030 0 17.187-3.74 23.005-9.756l90.505-90.462c5.573-5.752 9.008-13.603 9.008-22.257 0-17.673-14.327-32-32-32-8.643 0-16.486 3.427-22.244 8.995l0.009-0.009zM240.47 674.261l-90.498 90.539c-6.271 5.858-10.18 14.176-10.18 23.407 0 17.673 14.327 32 32 32 9.231 0 17.549-3.909 23.39-10.162l0.017-0.018 90.539-90.496c6.012-5.825 9.743-13.973 9.743-22.992 0-17.673-14.327-32-32-32-9.030 0-17.187 3.74-23.005 9.756l-0.009 0.009zM874.070 764.8l-90.54-90.539c-5.826-6.020-13.98-9.758-23.006-9.758-17.673 0-32 14.327-32 32 0 9.037 3.746 17.2 9.771 23.019l90.462 90.505c5.7 5.324 13.378 8.593 21.82 8.593 17.673 0 32-14.327 32-32 0-8.442-3.269-16.12-8.61-21.838l0.017 0.018zM285.652 176.47l-90.452-90.498c-5.752-5.573-13.603-9.008-22.257-9.008-17.673 0-32 14.327-32 32 0 8.643 3.427 16.486 8.995 22.244l90.488 90.53c5.826 6.020 13.98 9.758 23.006 9.758 17.673 0 32-14.327 32-32 0-9.037-3.746-17.2-9.771-23.019l-0.009-0.009z" />
<glyph unicode="&#xe909;" glyph-name="cart" d="M981.589 846.197c13.028 0 24.007-5.348 32.882-16.014 8.903-10.667 11.548-22.528 7.993-35.556l-76.459-369.863c-1.264-5.068-3.089-9.52-5.454-13.622l0.135 0.253c-2.389-4.124-5.348-7.68-8.903-10.638s-7.68-5.348-12.43-7.111c-4.217-1.667-9.102-2.646-14.211-2.674h-590.432l21.333-113.806h526.393c22.528 0 36.75-10.667 42.667-32 22.528-22.528 33.792-49.778 33.792-81.806 0-32-10.951-58.994-32.882-80.924-21.931-21.902-48.924-32.882-80.924-32.882s-58.965 10.951-80.896 32.882c-21.931 21.931-32.91 48.924-32.91 80.924 0 20.139 5.348 39.111 16.014 56.889h-259.612c10.667-17.778 15.986-36.75 15.986-56.889 0-32-10.951-58.994-32.882-80.924-21.931-21.902-48.924-32.882-80.924-32.882s-58.965 10.951-80.896 32.882c-21.931 21.931-32.91 48.924-32.91 80.924 0 29.639 10.098 55.125 30.236 76.459l-124.444 663.268h-140.516c-14.222 0-21.333 7.111-21.333 21.333v14.222c0 14.222 7.111 21.333 21.333 21.333h151.154c10.667 0 19.854-3.243 27.591-9.756 7.68-6.542 12.715-15.104 15.076-25.771l14.222-78.251zM409.003 124.248c11.833 10.667 17.778 23.694 17.778 39.111s-5.632 28.729-16.896 39.993c-9.976 10.421-24 16.898-39.536 16.898-0.171 0-0.341-0.001-0.512-0.002h0.026c-15.417 0-28.729-5.632-39.993-16.896-10.421-9.976-16.898-23.999-16.898-39.535 0-0.161 0.001-0.322 0.002-0.482v0.025c0-15.417 5.632-28.729 16.896-40.021 11.264-11.264 24.576-16.896 39.993-16.896s28.444 5.945 39.14 17.806zM784.185 124.248c11.861-11.861 25.486-17.806 40.903-17.806s28.729 5.632 40.021 16.896c11.264 11.264 16.896 24.604 16.896 40.021s-5.632 28.729-16.896 39.993c-9.976 10.421-24 16.898-39.536 16.898-0.171 0-0.341-0.001-0.512-0.002h0.026c-15.417 0-28.729-5.632-39.993-16.896-10.421-9.976-16.898-23.999-16.898-39.535 0-0.161 0.001-0.322 0.002-0.482v0.025c0-15.417 5.319-28.444 15.986-39.111zM892.672 447.861l71.111 341.419h-723.712l64-341.419zM704.171 583.029l-92.444-92.473c-9.5-9.5-18.972-9.5-28.444 0l-92.501 92.444c-5.916 5.945-7.111 13.369-3.556 22.244 3.556 8.903 10.098 13.34 19.57 13.34h62.236v92.444c0 14.222 7.111 21.333 21.333 21.333h14.222c14.222 0 21.333-7.111 21.333-21.333v-92.444h62.265c9.472 0 15.986-4.437 19.541-13.34s2.389-16.299-3.556-22.215z" />
<glyph unicode="&#xe90a;" glyph-name="check" d="M851.2 787.2c-188.8 188.8-492.8 188.8-678.4 0-188.8-188.8-188.8-492.8 0-678.4 188.8-188.8 492.8-188.8 678.4 0s188.8 489.6 0 678.4zM806.4 153.6c-163.2-163.2-425.6-163.2-588.8 0s-163.2 425.6 0 588.8c163.2 163.2 425.6 163.2 588.8 0s163.2-425.6 0-588.8zM825.6 662.4c-12.8 12.8-32 12.8-44.8 0l-361.6-358.4-176 176c-12.8 12.8-32 12.8-44.8 0s-12.8-32 0-44.8l198.4-198.4c12.8-12.8 32-12.8 44.8 0l384 384c12.8 9.6 12.8 28.8 0 41.6z" />
<glyph unicode="&#xe90b;" glyph-name="clock" d="M576 448h192v-128h-256c-35.2 0-64 28.8-64 64v320h128v-256zM512 812.8c200.96 0 364.8-163.84 364.8-364.8s-163.84-364.8-364.8-364.8c-201.327 0.364-364.437 163.473-364.8 364.765v0.035c0 200.96 163.84 364.8 364.8 364.8zM512 896c-247.040 0-448-200.96-448-448s200.96-448 448-448 448 200.96 448 448-200.96 448-448 448z" />
<glyph unicode="&#xe90c;" glyph-name="close" d="M519.020 500.52l-297.126 297.125c-6.753 6.995-16.214 11.338-26.688 11.338-20.478 0-37.079-16.601-37.079-37.079 0-10.463 4.333-19.913 11.303-26.654l297.135-297.16-297.125-297.149c-6.987-6.752-11.326-16.208-11.326-26.676 0-20.478 16.601-37.079 37.079-37.079 10.469 0 19.924 4.339 26.666 11.316l0.010 0.011 297.15 297.125 297.15-297.125c6.775-7.16 16.343-11.615 26.953-11.615 20.478 0 37.079 16.601 37.079 37.079 0 10.603-4.451 20.167-11.586 26.925l-0.017 0.016-297.125 297.174 297.125 297.125c6.988 6.752 11.326 16.208 11.326 26.677 0 20.478-16.601 37.079-37.079 37.079-10.469 0-19.924-4.338-26.666-11.315l-0.010-0.011-297.125-297.125z" />
<glyph unicode="&#xe90d;" glyph-name="close-circle-fill" d="M512 64c-213.333 0-384 170.667-384 384s170.667 384 384 384 384-170.667 384-384-170.667-384-384-384zM571.733 448l98.133 98.133c17.067 17.067 17.067 42.667 0 59.733s-42.667 17.067-59.733 0l-98.133-98.133-98.133 98.133c-17.067 17.067-42.667 17.067-59.733 0s-17.067-42.667 0-59.733l98.133-98.133-98.133-98.133c-17.067-17.067-17.067-42.667 0-59.733s42.667-17.067 59.733 0l98.133 98.133 98.133-98.133c17.067-17.067 42.667-17.067 59.733 0s17.067 42.667 0 59.733l-98.133 98.133z" />
<glyph unicode="&#xe90e;" glyph-name="cn" d="M870.791 198.036h-36.042v-72.082c0-39.812-32.269-72.085-72.085-72.085h-612.715c-39.815 0-72.089 32.272-72.089 72.085v504.59c0 39.812 32.272 72.085 72.089 72.085h36.038v72.089c0 39.812 32.272 72.082 72.085 72.082h612.718c39.812 0 72.085-32.269 72.085-72.082v-504.592c0-39.814-32.272-72.090-72.085-72.090zM149.95 666.59c-19.914 0-36.046-16.14-36.046-36.046v-504.589c0-19.905 16.132-36.046 36.046-36.046h612.715c19.905 0 36.038 16.14 36.038 36.046v504.589c0 19.905-16.132 36.046-36.038 36.046h-612.715zM906.838 774.717c0 19.905-16.135 36.038-36.046 36.038h-612.72c-19.902 0-36.038-16.132-36.038-36.038v-72.089h540.63c39.815 0 72.085-32.272 72.085-72.085v-396.461h36.042c19.91 0 36.046 16.135 36.046 36.042v504.593zM582.45 342.208h-72.089v-144.173h-108.123v144.173h-72.084v-36.046h-72.089v216.254h144.173v72.089h108.123v-72.089h144.173v-216.254h-72.085v36.046zM402.239 486.379h-72.084v-108.127h72.085v108.127zM582.45 486.379h-72.089v-108.127h72.089v108.127z" />
<glyph unicode="&#xe90f;" glyph-name="comment" d="M204.8 64c-32 0-64 6.4-83.2 38.4-19.2 25.6-12.8 64 12.8 96l19.2 19.2c6.4 6.4 12.8 12.8 12.8 19.2-102.4 64-166.4 160-166.4 262.4 0 198.4 224 352 512 352s512-153.6 512-352-224-352-512-352h-32c-108.8-57.6-198.4-70.4-204.8-70.4-25.6-6.4-44.8-12.8-70.4-12.8zM512 755.2c-224 0-416-115.2-416-256 0-76.8 64-153.6 166.4-204.8 0 0 25.6-6.4 38.4-32 6.4-19.2-19.2-44.8-19.2-44.8-12.8-25.6-32-38.4-44.8-57.6 6.4 0 12.8 0 19.2 6.4 6.4 0 89.6 12.8 185.6 64 0 0 6.4 6.4 12.8 6.4h51.2c224 0 416 115.2 416 256s-185.6 262.4-409.6 262.4zM198.4 492.8c0-45.95 37.25-83.2 83.2-83.2s83.2 37.25 83.2 83.2v0c0 45.95-37.25 83.2-83.2 83.2s-83.2-37.25-83.2-83.2v0zM435.2 492.8c0-45.95 37.25-83.2 83.2-83.2s83.2 37.25 83.2 83.2v0c0 45.95-37.25 83.2-83.2 83.2s-83.2-37.25-83.2-83.2v0zM672 492.8c0-45.95 37.25-83.2 83.2-83.2s83.2 37.25 83.2 83.2v0c0 45.95-37.25 83.2-83.2 83.2s-83.2-37.25-83.2-83.2v0z" />
<glyph unicode="&#xe910;" glyph-name="down" d="M466.995-30.669c11.741-11.015 27.583-17.782 45.005-17.782s33.264 6.766 45.040 17.815l-0.035-0.033 257.792 257.792c11.513 11.52 18.634 27.431 18.634 45.005 0 35.161-28.504 63.665-63.665 63.665-17.587 0-33.508-7.131-45.030-18.659l-148.736-148.736v693.094c0 35.346-28.654 64-64 64s-64-28.654-64-64v0-693.094l-148.48 149.965c-11.759 10.996-27.606 17.749-45.030 17.749s-33.272-6.753-45.068-17.784l0.037 0.035c-11.698-11.444-18.951-27.39-18.951-45.030s7.253-33.586 18.939-45.019l0.011-0.011z" />
<glyph unicode="&#xe911;" glyph-name="down2" d="M890.335 629.089c-12.576 12.416-32.8 12.353-45.248-0.193l-327.839-330.846-332.416 329.437c-12.576 12.448-32.8 12.353-45.28-0.192-12.448-12.577-12.354-32.832 0.192-45.281l353.311-350.112c0.544-0.544 1.248-0.673 1.793-1.184 0.127-0.127 0.16-0.287 0.287-0.416 5.777-5.735 13.736-9.28 22.523-9.28 0.002 0 0.004 0 0.005 0v0c8.224 0 16.48 3.168 22.72 9.47l350.112 353.313c12.48 12.58 12.386 32.835-0.16 45.284z" />
<glyph unicode="&#xe912;" glyph-name="download" d="M751.4 149.3c-16.3 0-29.5 13.2-29.5 29.5s13.2 29.5 29.5 29.5h8.4c101 0 167.6 112.1 167.6 212.7 0 110.5-96.2 199.5-205.8 201.8l-21.3 0.5-6.3 20.3c-30.5 98.5-96.3 156.3-213.6 156.3-146.3 0-240.9-108.4-240.9-252.2l0.2-0.3 2.4-27.1-26.8-4.6c-65.3-11.2-117.3-78.2-117.3-152.4 0-84 65.1-154.9 141-154.9h26.2c16.3 0 29.5-13.2 29.5-29.5s-13.2-29.5-29.5-29.5h-26.2c-107.9 0-199.1 98-199.1 214 0 94.7 59.2 178.4 141.2 204.6 10.2 164.8 129.2 291 299.3 291 133.6 0 222.1-69.2 263.3-178.4 133.5-14.5 240.3-123.4 240.3-259.6 0-126.8-85.1-267.8-232.6-271.7zM511.6 100.5l94.7 104.5c8.2 8.6 21.6 8.6 29.8 0l7.4-5.9c8.2-8.6 8.2-18.9 0-27.5l-109.1-119.7c-0.1-0.2-0.2-0.3-0.3-0.5l-7.5-7.8c-4.1-4.3-9.5-6.5-15-6.4-5.4 0-10.9 2.1-15 6.4l-7.5 7.8c-0.1 0.1-0.2 0.3-0.3 0.5l-106.5 117.8c-8.3 8.6-8.3 22.6 0 31.2l7.4 4.1c8.2 8.6 21.6 6.8 29.9-1.8l92-102.7zM511.9 460c16.3 0 29.5-13.2 29.5-29.5v-324.7c0-16.3-13.2-29.5-29.5-29.5s-29.5 13.2-29.5 29.5v324.7c0 16.3 13.2 29.5 29.5 29.5z" />
<glyph unicode="&#xe913;" glyph-name="download-remove" d="M894.816 445.024c-14.816 180.56-166.496 322.976-350.816 322.976-163.584 0-304.688-106.16-345.456-256h-6.544c-105.872 0-192-86.128-192-192s86.128-192 192-192h672c88.224 0 160 71.776 160 160 0 77.68-55.664 142.624-129.184 157.024zM864 192h-672c-70.576 0-128 57.424-128 128s57.424 128 128 128h32c0.002 0 0.005 0 0.008 0 15.58 0 28.559 11.134 31.415 25.879l0.032 0.201c25.024 133.232 146.384 229.92 288.544 229.92 158.8 0 288-129.2 288-288 0-17.673 14.327-32 32-32v0c52.944 0 96-43.056 96-96s-43.056-96-96-96zM630.624 502.624c-5.791 5.789-13.789 9.369-22.624 9.369s-16.833-3.58-22.624-9.369l-57.376-57.376-57.376 57.376c-5.827 6.027-13.985 9.769-23.017 9.769-17.673 0-32-14.327-32-32 0-9.032 3.742-17.19 9.76-23.009l57.385-57.385-57.376-57.376c-6.027-5.827-9.769-13.985-9.769-23.017 0-17.673 14.327-32 32-32 9.032 0 17.19 3.742 23.009 9.76l57.385 57.385 57.376-57.376c6.256-6.256 14.432-9.376 22.624-9.376s16.368 3.12 22.624 9.376c5.789 5.791 9.369 13.789 9.369 22.624s-3.58 16.833-9.369 22.624l-57.376 57.376 57.376 57.376c5.789 5.791 9.369 13.789 9.369 22.624s-3.58 16.833-9.369 22.624v0z" />
<glyph unicode="&#xe914;" glyph-name="en" horiz-adv-x="1115" d="M185.762 587.793h278.667v-46.445h-185.778v-139.334h139.334v-46.445h-139.334v-139.334h185.778v-46.445h-278.667v418.001zM696.653 355.586s5.405 46.445-46.445 46.445c-21.146 0-46.445-10.161-46.445-46.445v-185.778h-92.889v278.667h185.778c-2.774 0 92.889 5.722 92.889-92.889v-185.778h-92.889v185.778zM1068.21 866.461c0 25.648-20.797 46.445-46.445 46.445h-789.542c-25.648 0-46.445-20.781-46.445-46.445v-92.889h696.669c51.295 0 92.889-41.578 92.889-92.889v-510.875h46.445c25.648 0 46.445 20.797 46.445 46.445v650.208h-0.016zM92.873 727.127c-25.648 0-46.445-20.797-46.445-46.445v-650.208c0-25.648 20.797-46.445 46.445-46.445h789.558c25.648 0 46.445 20.797 46.445 46.445v650.208c0 25.648-20.797 46.445-46.445 46.445h-789.558zM1021.765 123.363h-46.445v-92.889c0-51.295-41.594-92.889-92.889-92.889h-789.558c-51.295 0-92.873 41.578-92.873 92.889v650.208c0 51.295 41.578 92.889 92.873 92.889h46.445v92.889c0 51.311 41.578 92.889 92.889 92.889h789.542c51.311 0 92.889-41.578 92.889-92.889v-650.208c0.016-51.311-41.578-92.889-92.873-92.889z" />
<glyph unicode="&#xe915;" glyph-name="left" d="M666.976 138.792l-311.836 310.107 311.836 310.101c8.135 8.087 8.941 20.362 1.85 27.456-7.122 7.068-19.48 6.257-27.611-1.841l-321.38-319.567c-4.629-4.609-6.814-10.595-6.548-16.201-0.207-5.573 1.952-11.499 6.58-16.074l321.343-319.584c8.135-8.070 20.523-8.908 27.616-1.829s6.285 19.361-1.85 27.456v0z" />
<glyph unicode="&#xe916;" glyph-name="headphone" d="M896 500.224v11.776c0 212.077-171.923 384-384 384s-384-171.923-384-384v0-11.776c-75.019-26.984-127.746-97.414-128-180.193v-128.031c0.109-105.995 86.005-191.891 191.99-192h0.010c35.346 0 64 28.654 64 64v0 448c0 141.385 114.615 256 256 256s256-114.615 256-256v0-448c0-35.346 28.654-64 64-64v0c105.995 0.109 191.891 86.005 192 191.99v128.010c-0.254 82.81-52.98 153.24-126.664 179.803l-1.336 0.421z" />
<glyph unicode="&#xe917;" glyph-name="menu" d="M319.474 703.888h576.603c35.346 0 64 28.654 64 64s-28.654 64-64 64h-576.603c-35.347 0-64-28.654-64-64s28.653-64 64-64zM896.077 511.9h-576.603c-35.347 0-64-28.654-64-64s28.653-64 64-64h576.603c35.346 0 64 28.654 64 64s-28.654 64-64 64zM896.077 193.513h-576.603c-35.347 0-64-28.654-64-64s28.653-64 64-64h576.603c35.346 0 64 28.654 64 64s-28.654 64-64 64zM64 767.955c0-35.346 28.654-64 64-64s64 28.654 64 64v0c0 35.346-28.654 64-64 64s-64-28.654-64-64v0zM64 448c0-35.346 28.654-64 64-64s64 28.654 64 64v0c0 35.346-28.654 64-64 64s-64-28.654-64-64v0zM64 128c0-35.346 28.654-64 64-64s64 28.654 64 64v0c0 35.346-28.654 64-64 64s-64-28.654-64-64v0z" />
<glyph unicode="&#xe918;" glyph-name="more" d="M743.469 447.271c0.094 42.656 34.5 77.063 77.25 76.969 42.562-0.094 77.156-34.688 77.063-77.344 0-42.469-34.781-77.063-77.438-76.969-42.562 0.094-76.875 34.594-76.875 77.344zM202.531 370.021c-42.656 0-77.344 34.5-77.344 77.062-0.094 42.562 34.5 77.25 77.156 77.25 42.75 0 77.25-34.313 77.25-77.063s-34.313-77.25-77.063-77.25zM511.625 524.333c42.562 0 77.438-34.969 77.25-77.25-0.281-42.656-34.781-77.063-77.438-77.063-42.562 0-77.344 34.781-77.156 77.25 0.094 42.562 34.688 77.063 77.344 77.063z" />
<glyph unicode="&#xe919;" glyph-name="move" horiz-adv-x="1057" d="M372.802 893.935c29.201 0 57.212-11.33 77.857-31.447l80.5-78.551c12.387-12.090 29.201-18.861 46.708-18.861h280.972c73.001 0 132.129-57.674 132.129-128.826v-472.361c0-71.151-59.128-128.826-132.129-128.826h-660.645c-73.001 0-132.129 57.674-132.129 128.826v601.22c0 71.151 59.128 128.826 132.129 128.826h174.609zM377.261 794.839h-169.522c-23.585 0-42.744-18.498-42.744-41.29v-578.065c0-22.792 19.159-41.29 42.744-41.29h641.222c23.618 0 42.744 18.498 42.744 41.29v454.194c0 22.792-19.159 41.29-42.744 41.29h-272.681c-0.119 0-0.259-0.001-0.4-0.001-40.926 0-78.084 16.138-105.455 42.398l0.053-0.050-78.121 75.479c-3.903 3.741-9.21 6.045-15.054 6.045-0.015 0-0.029 0-0.044 0h0.002zM745.241 449.982l2.709-2.907-0.925 1.024 1.982-2.312 1.057-1.387 0.991-1.42 0.529-0.76c5.112-7.637 8.159-17.033 8.159-27.14 0-0.039 0-0.079 0-0.118v0.006c0-0.021 0-0.046 0-0.071 0-9.719-2.806-18.782-7.651-26.425l0.12 0.202-0.297-0.462-0.33-0.495c-1.773-2.672-3.654-5.004-5.728-7.149l0.013 0.014-117.43-117.43c-8.901-8.606-21.042-13.909-34.422-13.909-27.365 0-49.548 22.184-49.548 49.548 0 13.38 5.303 25.521 13.922 34.436l-0.013-0.014 32.173 32.239-243.712-0.033c-27.365 0-49.548 22.184-49.548 49.548s22.184 49.548 49.548 49.548h243.712l-32.173 32.206c-8.606 8.901-13.909 21.042-13.909 34.422 0 27.365 22.184 49.548 49.548 49.548 13.38 0 25.521-5.303 34.436-13.922l-0.014 0.013 116.802-116.769z" />
<glyph unicode="&#xe91a;" glyph-name="pause" d="M512 960c-282.8 0-512-229.2-512-512s229.2-512 512-512 512 229.2 512 512-229.2 512-512 512zM455.1 334.2c0-31.4-25.5-56.9-56.9-56.9s-56.9 25.5-56.9 56.9v227.6c0 31.4 25.5 56.9 56.9 56.9s56.9-25.5 56.9-56.9v-227.6zM682.7 334.2c0-31.4-25.5-56.9-56.9-56.9s-56.9 25.5-56.9 56.9v227.6c0 31.4 25.5 56.9 56.9 56.9s56.9-25.5 56.9-56.9v-227.6z" />
<glyph unicode="&#xe91b;" glyph-name="person" d="M449.067 454.571c-60.28 35.861-100.042 100.668-100.042 174.763 0 111.93 90.737 202.667 202.667 202.667 0.026 0 0.052 0 0.078 0h-0.004c0.013 0 0.028 0 0.043 0 111.906 0 202.624-90.718 202.624-202.624 0-0.015 0-0.030 0-0.045v0.002c0-0.021 0-0.047 0-0.072 0-76.811-42.739-143.639-105.734-178.001l-1.061-0.53c134.699-33.493 245.12-129.579 288.768-250.453 5.803-35.157 6.784-105.259-78.592-105.259h-628.992c-121.259 0-100.139 70.315-98.304 105.301 48.853 125.995 167.168 224.853 318.549 254.251z" />
<glyph unicode="&#xe91c;" glyph-name="play_backward" d="M814.976 737.696c-10.432 5.504-23.168 4.832-32.96-1.824l-206.016-140.16v113.696c0 11.872-6.56 22.72-17.024 28.288-10.432 5.504-23.168 4.832-32.96-1.824l-384-261.248c-8.506-5.837-14.014-15.507-14.014-26.464s5.508-20.627 13.906-26.394l0.109-0.070 384-261.376c5.408-3.68 11.68-5.568 17.984-5.568 5.12 0 10.272 1.216 14.976 3.712 10.464 5.536 17.024 16.448 17.024 28.288v113.792l206.016-140.224c5.408-3.68 11.68-5.568 17.984-5.568 5.12 0 10.272 1.216 14.976 3.712 10.464 5.536 17.024 16.448 17.024 28.288v522.656c0 11.872-6.56 22.72-17.024 28.288z" />
<glyph unicode="&#xe91d;" glyph-name="play_forward" d="M881.984 474.464l-384 261.408c-5.032 3.446-11.252 5.503-17.952 5.503-17.668 0-31.995-14.304-32.032-31.964v-113.796l-206.016 140.256c-5.032 3.446-11.252 5.503-17.952 5.503-17.668 0-31.995-14.304-32.032-31.964v-522.66c0.037-17.663 14.364-31.967 32.032-31.967 6.7 0 12.92 2.057 18.062 5.574l-0.11-0.071 206.016 140.16v-113.696c0.037-17.663 14.364-31.967 32.032-31.967 6.7 0 12.92 2.057 18.062 5.574l-0.11-0.071 384 261.28c8.532 5.814 14.061 15.485 14.061 26.448s-5.529 20.634-13.951 26.377l-0.11 0.071z" />
<glyph unicode="&#xe91e;" glyph-name="play_go" d="M512 896c-247.4 0-448-200.6-448-448s200.6-448 448-448 448 200.6 448 448-200.6 448-448 448zM656.1 441.1l-218.4-158.9c-1.4-1-3-1.5-4.7-1.5-4.4 0-8 3.6-8 8v317.6c0 1.7 0.5 3.3 1.5 4.7 2.6 3.6 7.6 4.4 11.2 1.8l218.4-158.8c0.7-0.5 1.3-1.1 1.8-1.8 2.6-3.5 1.8-8.5-1.8-11.1z" />
<glyph unicode="&#xe91f;" glyph-name="private" d="M876.384 735.072h-729.536c-45.28 0-82.112-37.696-82.112-84.032v-439.904c0-46.336 37.344-84.064 83.264-84.064h199.296c33.888 0 64.096 20.48 77.056 52.32l57.888 144.896c5.152 12.672 17.152 20.832 30.56 20.832 13.376 0 25.344-8.192 30.4-20.672l58.016-145.28c12.672-31.2 43.232-52.128 75.968-52.128h199.232c46.496 0 84.352 37.728 84.352 84.064v439.936c-0.064 46.304-37.888 84.032-84.384 84.032zM307.072 351.936c-61.76 0-112 50.24-112 112s50.24 112 112 112 112-50.24 112-112-50.24-112-112-112zM722.368 351.936c-61.76 0-112 50.24-112 112s50.24 112 112 112 112-50.24 112-112-50.24-112-112-112z" />
<glyph unicode="&#xe920;" glyph-name="private-see" d="M876.448 735.072h-729.536c-45.28 0-82.112-37.696-82.112-84.032v-439.904c0-46.336 37.344-84.064 83.264-84.064h199.296c33.888 0 64.096 20.48 77.056 52.32l57.888 144.896c5.152 12.672 17.152 20.832 30.56 20.832 13.376 0 25.344-8.192 30.4-20.672l58.016-145.28c12.672-31.2 43.232-52.128 75.968-52.128h199.232c46.496 0 84.352 37.728 84.352 84.064v439.936c-0.064 46.304-37.888 84.032-84.384 84.032zM896.768 211.136c0-11.264-8.928-20.064-20.352-20.064h-199.232c-6.88 0-13.76 5.024-16.608 12.064l-58.016 145.28c-15.040 36.864-50.24 60.704-89.792 60.704s-74.816-23.84-89.92-60.896l-57.888-144.896c-3.040-7.424-9.984-12.256-17.696-12.256h-199.232c-10.624 0-19.264 8.992-19.264 20.064v439.904c0 10.656 8.48 20.032 18.112 20.032h729.536c11.392 0 20.352-8.8 20.352-20.032v-439.904zM642.432 463.936c0-44.183 35.817-80 80-80s80 35.817 80 80v0c0 44.183-35.817 80-80 80s-80-35.817-80-80v0zM223.936 463.936c0-44.183 35.817-80 80-80s80 35.817 80 80v0c0 44.183-35.817 80-80 80s-80-35.817-80-80v0z" />
<glyph unicode="&#xe921;" glyph-name="progress" d="M677.291 405.333c-19.689-74.156-86.212-127.912-165.291-127.912s-145.602 53.756-165.021 126.72l-0.27 1.192h-218.709v85.333h218.709c19.689 74.156 86.212 127.912 165.291 127.912s145.602-53.756 165.021-126.72l0.27-1.192h218.709v-85.333h-218.709z" />
<glyph unicode="&#xe922;" glyph-name="search" d="M400.704 158.592c-221.303 0-400.704 179.401-400.704 400.704s179.401 400.704 400.704 400.704v0c221.303 0 400.704-179.401 400.704-400.704s-179.401-400.704-400.704-400.704v0zM400.704 247.616c172.136 0 311.68 139.544 311.68 311.68s-139.544 311.68-311.68 311.68v0c-172.136 0-311.68-139.544-311.68-311.68s139.544-311.68 311.68-311.68v0zM667.968 358.016l314.752-314.88-62.912-62.912-314.816 314.816 62.976 62.976z" />
<glyph unicode="&#xe923;" glyph-name="settings" horiz-adv-x="1170" d="M0 881.006h546.377v-157.257h-546.377zM0 513.829h468.114v-157.257h-468.114zM0 172.251h546.377v-157.257h-546.377zM702.171 881.006h468.114v-157.257h-468.114zM546.377 960h234.057v-315.246h-234.057zM312.32 592.091h234.057v-315.246h-234.057zM546.377 251.246h234.057v-315.246h-234.057zM621.714 513.829h548.571v-157.257h-548.571zM702.171 172.251h468.114v-157.257h-468.114z" />
<glyph unicode="&#xe924;" glyph-name="shake" d="M324 294c0-26.51 21.49-48 48-48s48 21.49 48 48v0c0 26.51-21.49 48-48 48s-48-21.49-48-48v0zM940.7 603.6l-273.1 273.2c-12.4 12.3-28.9 19.2-46.5 19.2s-34.1-6.8-46.5-19.2l-491.3-491.3c-25.7-25.7-25.7-67.4 0-93.1l273.2-273.2c12.3-12.3 28.9-19.2 46.5-19.2s34.1 6.8 46.5 19.2l491.3 491.3c25.6 25.7 25.6 67.5-0.1 93.1zM403 79.9l-259.1 259.1 477.2 477.2 259-259.2-477.1-477.1zM152.8 586.3c3.1-3.1 8.1-3.1 11.2 0l209.7 209.7c3.1 3.1 3.1 8.1 0 11.2l-38.4 38.4c-3.1 3.1-8.1 3.1-11.2 0l-209.8-209.5c-3.1-3.1-3.1-8.1 0-11.2l38.5-38.6zM871.4 309.7c-3.1 3.1-8.1 3.1-11.2 0l-209.9-209.8c-3.1-3.1-3.1-8.1 0-11.2l38.4-38.4c3.1-3.1 8.1-3.1 11.2 0l209.8 209.7c3.1 3.1 3.1 8.1 0 11.2l-38.3 38.5z" />
<glyph unicode="&#xe925;" glyph-name="share" d="M792 208.035c0-22.111-18.464-40.035-40.035-40.035h-479.93c-22.111 0-40.035 18.464-40.035 40.035v479.93c0 22.111 18.464 40.035 40.035 40.035h199.965c22.091 0 40 17.909 40 40s-17.909 40-40 40h-240.368c-43.179 0-79.632-35.652-79.632-79.632v-560.736c0-43.179 35.652-79.632 79.632-79.632h560.736c43.179 0 79.632 35.652 79.632 79.632v240.368c0 22.091-17.909 40-40 40s-40-17.909-40-40v-199.965zM667.757 727.14c-21.888 0-39.631 18.555-39.631 40 0 22.091 17.26 40 39.631 40h160.738c10.881 0 20.738-4.586 27.9-11.832 7.304-6.816 11.731-16.675 11.731-27.799v-160.738c0-21.888-18.555-39.631-40-39.631-22.091 0-40 17.26-40 39.631v63.8l-351.102-351.102c-15.635-15.635-41.429-15.189-56.593-0.025-15.621 15.621-15.228 41.34 0.025 56.593l351.102 351.102h-63.8z" />
<glyph unicode="&#xe926;" glyph-name="shelf" horiz-adv-x="1070" d="M1024.115 29.097h-977.617c-25.037-0.855-45.008-21.357-45.008-46.523s19.971-45.668 44.93-46.521l0.078-0.002h977.617c25.037 0.855 45.008 21.357 45.008 46.523s-19.971 45.668-44.93 46.521l-0.078 0.002zM465.509 122.053h139.645c25.699 0.022 46.527 20.849 46.548 46.546v744.852c-0.022 25.699-20.849 46.527-46.546 46.548h-139.647c-25.705-0.007-46.541-20.843-46.548-46.548v-744.851c0-25.708 20.84-46.548 46.548-46.548v0zM535.332 354.808c38.562 0 69.823-31.261 69.823-69.823s-31.261-69.823-69.823-69.823c-38.562 0-69.823 31.261-69.823 69.823v0c0.015 38.556 31.266 69.808 69.821 69.823h0.001zM791.36 122.040h139.658c25.699 0.022 46.527 20.849 46.548 46.546v605.207c-0.022 25.699-20.849 46.527-46.546 46.548h-139.66c-25.708 0-46.548-20.84-46.548-46.548v0-605.205c0-25.708 20.84-46.548 46.548-46.548v0zM861.183 354.795c38.562 0 69.823-31.261 69.823-69.823s-31.261-69.823-69.823-69.823c-38.562 0-69.823 31.261-69.823 69.823v0c0.015 38.556 31.266 69.808 69.821 69.823h0.001zM139.645 122.053h139.658c25.702 0.015 46.534 20.846 46.548 46.547v512.058c-0.015 25.702-20.846 46.534-46.547 46.548h-139.659c-25.708 0-46.548-20.84-46.548-46.548v0-512.096c0.022-25.692 20.854-46.51 46.548-46.51 0 0 0 0 0 0v0zM209.468 354.808c38.562 0 69.823-31.261 69.823-69.823s-31.261-69.823-69.823-69.823c-38.562 0-69.823 31.261-69.823 69.823v0c0.022 38.551 31.271 69.795 69.821 69.81h0.001z" />
<glyph unicode="&#xe927;" d="M128 448c0-212.077 171.923-384 384-384s384 171.923 384 384v0c0 212.077-171.923 384-384 384s-384-171.923-384-384v0z" />
<glyph unicode="&#xe928;" d="M473.6 377.6l-108.8 108.8-38.4-38.4 147.2-147.2 224 236.8-38.4 38.4z" />
<glyph unicode="&#xe929;" glyph-name="speak" d="M752 576h32c8.837 0 16-7.163 16-16v0-224c0-8.837-7.163-16-16-16v0h-32c-8.837 0-16 7.163-16 16v0 224c0 8.837 7.163 16 16 16v0zM624 672h32c8.837 0 16-7.163 16-16v0-416c0-8.837-7.163-16-16-16v0h-32c-8.837 0-16 7.163-16 16v0 416c0 8.837 7.163 16 16 16v0zM496 768h32c8.837 0 16-7.163 16-16v0-608c0-8.837-7.163-16-16-16v0h-32c-8.837 0-16 7.163-16 16v0 608c0 8.837 7.163 16 16 16v0zM368 672h32c8.837 0 16-7.163 16-16v0-416c0-8.837-7.163-16-16-16v0h-32c-8.837 0-16 7.163-16 16v0 416c0 8.837 7.163 16 16 16v0zM240 576h32c8.837 0 16-7.163 16-16v0-224c0-8.837-7.163-16-16-16v0h-32c-8.837 0-16 7.163-16 16v0 224c0 8.837 7.163 16 16 16v0z" />
<glyph unicode="&#xe92a;" glyph-name="up" d="M512.102 653.722c2.97 0 5.786-0.922 8.704-1.485 1.894-0.512 3.84-0.512 5.632-1.126 5.383-2.107 9.983-5.129 13.829-8.914l333.819-333.819c15.36-15.053 15.77-39.68 0.819-55.194-7.017-6.782-16.588-10.961-27.134-10.961-10.955 0-20.856 4.509-27.95 11.772l-0.007 0.008-307.814 307.712-307.814-307.712c-7.093-7.268-16.986-11.776-27.932-11.776-10.537 0-20.099 4.178-27.119 10.967l0.011-0.010c-6.809 7.015-11.007 16.598-11.007 27.161 0 10.945 4.507 20.838 11.767 27.923l333.832 333.832c3.875 3.778 8.509 6.8 13.648 8.813l0.278 0.096c1.843 0.717 3.789 0.717 5.632 1.178 2.918 0.614 5.786 1.536 8.704 1.536z" />
<glyph unicode="&#xe92b;" glyph-name="right" d="M702.382 448.117l-33.107 33.128-0.142-0.14-314.408 314.434-33.107-33.107 314.412-314.432-314.412-314.435 33.107-33.103 347.657 347.655z" />
</font>
</defs>
</svg>
